<svg width="10" height="11" viewBox="0 0 10 11" fill="none" xmlns="http://www.w3.org/2000/svg">
<path d="M3 10.25L2 9.5V7.5H1.5C1.225 7.5 0.989583 7.40208 0.79375 7.20625C0.597917 7.01042 0.5 6.775 0.5 6.5V2.75C0.358333 2.75 0.239583 2.70208 0.14375 2.60625C0.0479167 2.51042 0 2.39167 0 2.25C0 2.10833 0.0479167 1.98958 0.14375 1.89375C0.239583 1.79792 0.358333 1.75 0.5 1.75H2V1H1.75C1.60833 1 1.48958 0.952083 1.39375 0.85625C1.29792 0.760417 1.25 0.641667 1.25 0.5C1.25 0.358333 1.29792 0.239583 1.39375 0.14375C1.48958 0.0479167 1.60833 0 1.75 0H3.25C3.39167 0 3.51042 0.0479167 3.60625 0.14375C3.70208 0.239583 3.75 0.358333 3.75 0.5C3.75 0.641667 3.70208 0.760417 3.60625 0.85625C3.51042 0.952083 3.39167 1 3.25 1H3V1.75H4.5C4.64167 1.75 4.76042 1.79792 4.85625 1.89375C4.95208 1.98958 5 2.10833 5 2.25C5 2.39167 4.95208 2.51042 4.85625 2.60625C4.76042 2.70208 4.64167 2.75 4.5 2.75V6.5C4.5 6.775 4.40208 7.01042 4.20625 7.20625C4.01042 7.40208 3.775 7.5 3.5 7.5H3V10.25ZM1.5 6.5H3.5V5.75H2.625C2.525 5.75 2.4375 5.7125 2.3625 5.6375C2.2875 5.5625 2.25 5.475 2.25 5.375C2.25 5.275 2.2875 5.1875 2.3625 5.1125C2.4375 5.0375 2.525 5 2.625 5H3.5V4.25H2.625C2.525 4.25 2.4375 4.2125 2.3625 4.1375C2.2875 4.0625 2.25 3.975 2.25 3.875C2.25 3.775 2.2875 3.6875 2.3625 3.6125C2.4375 3.5375 2.525 3.5 2.625 3.5H3.5V2.75H1.5V6.5ZM6.5 10C6.225 10 5.98958 9.90208 5.79375 9.70625C5.59792 9.51042 5.5 9.275 5.5 9V5.75C5.5 5.50833 5.54167 5.30833 5.625 5.15C5.70833 4.99167 5.79583 4.85417 5.8875 4.7375C5.97917 4.62083 6.0625 4.52708 6.1375 4.45625C6.2125 4.38542 6.25 4.31667 6.25 4.25V4C6.10833 4 5.98958 3.95208 5.89375 3.85625C5.79792 3.76042 5.75 3.64167 5.75 3.5C5.75 3.35833 5.79792 3.23958 5.89375 3.14375C5.98958 3.04792 6.10833 3 6.25 3H8.75C8.89167 3 9.01042 3.04792 9.10625 3.14375C9.20208 3.23958 9.25 3.35833 9.25 3.5C9.25 3.64167 9.20208 3.76042 9.10625 3.85625C9.01042 3.95208 8.89167 4 8.75 4V4.25C8.75 4.31667 8.79167 4.39167 8.875 4.475C8.95833 4.55833 9.05 4.65833 9.15 4.775C9.24167 4.89167 9.32292 5.02917 9.39375 5.1875C9.46458 5.34583 9.5 5.53333 9.5 5.75V9C9.5 9.275 9.40208 9.51042 9.20625 9.70625C9.01042 9.90208 8.775 10 8.5 10H6.5ZM6.5 6H8.5V5.75C8.5 5.625 8.4625 5.51667 8.3875 5.425C8.3125 5.33333 8.22917 5.23333 8.1375 5.125C8.04583 5.01667 7.95833 4.89583 7.875 4.7625C7.79167 4.62917 7.75 4.45833 7.75 4.25V4H7.25V4.25C7.25 4.45 7.21042 4.61667 7.13125 4.75C7.05208 4.88333 6.96667 5.00417 6.875 5.1125C6.78333 5.22083 6.69792 5.32292 6.61875 5.41875C6.53958 5.51458 6.5 5.625 6.5 5.75V6ZM6.5 7.5H8.5V6.75H6.5V7.5ZM6.5 9H8.5V8.25H6.5V9ZM6.5 7.5H8.5H6.5Z" fill="#2C3E50"/>
</svg>
